Coordinates
version=1
nRows=18
nColumns=22
inDegrees=yes

Units are S.I. units (second, meters, Newtons, ...)
If the header above contains a line with 'inDegrees', this indicates whether rotational values are in degrees (yes) or radians (no).

endheader
time	pelvis_tilt	pelvis_list	pelvis_rotation	pelvis_tx	pelvis_ty	pelvis_tz	hip_flexion_r	hip_adduction_r	hip_rotation_r	knee_angle_r	ankle_angle_r	subtalar_angle_r	hip_flexion_l	hip_adduction_l	hip_rotation_l	knee_angle_l	ankle_angle_l	subtalar_angle_l	lumbar_extension	lumbar_bending	lumbar_rotation
      1.20000000	     -9.95324971	      2.21807155	    -34.44865844	     -1.40756636	      0.88210523	     -0.52413756	     10.87307129	      1.05236494	     -0.42637818	    -10.50395136	     14.14758039	      0.08349542	     12.00889367	     -6.99241621	     -4.01240214	    -17.91785330	     18.74237196	      2.46242865	      1.94418286	      1.72926318	     14.57299528
      1.21000000	     -9.99773335	      2.23818355	    -34.49741361	     -1.40689380	      0.88195678	     -0.52394068	     10.87618820	      1.04384771	     -0.38907202	    -10.50514848	     14.22566456	      0.19473458	     12.01167966	     -6.98542002	     -4.04077109	    -17.94895154	     18.88753389	      2.41057060	      1.96417343	      1.73669751	     14.58787860
      1.22000000	    -10.03668941	      2.25962244	    -34.54918030	     -1.40616843	      0.88180542	     -0.52374268	     10.87739027	      1.02880583	     -0.34435434	    -10.51620671	     14.31148663	      0.30965500	     12.00948596	     -6.97108369	     -4.06950399	    -17.98578200	     19.03311252	      2.35706615	      1.97670278	      1.74195328	     14.60781745
      1.23000000	    -10.08157731	      2.29400136	    -34.60474635	     -1.40537058	      0.88163658	     -0.52352309	     10.88837217	      1.00290951	     -0.29834266	    -10.52942893	     14.39682473	      0.54558501	     12.00710942	     -6.94564760	     -4.10037093	    -18.00785300	     19.15980394	      2.24586138	      2.00715959	      1.73989642	     14.62948441
      1.24000000	    -10.10829402	      2.30591769	    -34.65030788	     -1.40451406	      0.88149135	     -0.52330320	     10.86717721	      0.98481890	     -0.26232339	    -10.54844473	     14.49692222	      0.60772918	     11.98682850	     -6.92722352	     -4.11471641	    -18.05681808	     19.31354892	      2.21128759	      2.00161106	      1.74539430	     14.63788555
      1.25000000	    -10.13931360	      2.32486562	    -34.69980156	     -1.40359081	      0.88132705	     -0.52309007	     10.85056783	      0.95991604	     -0.21025317	    -10.56659979	     14.59705248	      0.71025877	     11.96773775	     -6.90089679	     -4.13078668	    -18.10243795	     19.46582401	      2.15089676	      2.00402675	      1.75110584	     14.65161984
      1.26000000	    -10.17706012	      2.34827940	    -34.73466605	     -1.40257410	      0.88115246	     -0.52286478	     10.81507393	      0.93285131	     -0.16272029	    -10.54478177	     14.68163937	      0.75114186	     11.94670915	     -6.86561908	     -4.09464967	    -18.13506213	     19.59962461	      2.12868179	      2.02099810	      1.75288692	     14.66507823
      1.27000000	    -10.20416615	      2.35561690	    -34.79709411	     -1.40152540	      0.88097773	     -0.52261230	     10.79034312	      0.91333246	     -0.11901222	    -10.58333981	     14.79879605	      0.92723105	     11.90982874	     -6.84704143	     -4.13357241	    -18.19388094	     19.76430763	      2.01117707	      2.00977371	      1.76841452	     14.69092149
      1.28000000	    -10.24153899	      2.37543063	    -34.83691375	     -1.40035986	      0.88078362	     -0.52237154	     10.74420566	      0.88308804	     -0.06672435	    -10.56294306	     14.89094298	      1.04139552	     11.87215116	     -6.80991334	     -4.11002293	    -18.22235869	     19.91843783	      1.93756788	      2.02201947	      1.77946891	     14.69216804
      1.29000000	    -10.28290132	      2.38579597	    -34.88654859	     -1.39909554	      0.88059055	     -0.52208565	     10.68704710	      0.86127527	     -0.04329742	    -10.53653062	     14.98688950	      1.23574289	     11.81658146	     -6.78561283	     -4.12757479	    -18.23718430	     20.06481134	      1.80399753	      2.03648109	      1.80400750	     14.72430011
      1.30000000	    -10.33902989	      2.41205212	    -34.92091328	     -1.39776700	      0.88036375	     -0.52178342	     10.63736893	      0.83437418	     -0.01242392	    -10.49066795	     15.07184798	      1.25814732	     11.77909170	     -6.75177962	     -4.10428806	    -18.24604777	     20.20666836	      1.79089450	      2.07712246	      1.81705262	     14.72863397
      1.31000000	    -10.38189809	      2.41525767	    -34.97390875	     -1.39641806	      0.88015319	     -0.52146351	     10.57726704	      0.82095063	      0.04051751	    -10.47625486	     15.16979364	      1.34388688	     11.72810051	     -6.73649921	     -4.12147334	    -18.29098505	     20.39664430	      1.72629907	      2.07909549	      1.84399712	     14.74818350
      1.32000000	    -10.43557259	      2.42602148	    -35.03619039	     -1.39496872	      0.87993073	     -0.52108661	     10.51149334	      0.80668152	      0.08379752	    -10.43431862	     15.25208147	      1.50085812	     11.66588383	     -6.72094805	     -4.16260249	    -18.30341963	     20.55851316	      1.60184790	      2.10355493	      1.86970269	     14.79962097
      1.33000000	    -10.50400997	      2.45711451	    -35.07517836	     -1.39344272	      0.87967257	     -0.52071199	     10.46146966	      0.77964959	      0.11196582	    -10.38503368	     15.33080373	      1.52418952	     11.62249035	     -6.68764060	     -4.14662096	    -18.30046515	     20.70213862	      1.58334205	      2.15622785	      1.88059864	     14.81810694
      1.34000000	    -10.55887174	      2.46961436	    -35.14347679	     -1.39191520	      0.87942621	     -0.52030758	     10.40741677	      0.76595539	      0.18935806	    -10.37325809	     15.42231300	      1.60261155	     11.56822419	     -6.67008425	     -4.17530876	    -18.33761339	     20.89852591	      1.50187202	      2.16978654	      1.90106366	     14.85882412
      1.35000000	    -10.62805482	      2.49546230	    -35.20207220	     -1.39027021	      0.87915405	     -0.51986157	     10.35303884	      0.74564438	      0.24205624	    -10.33623957	     15.50699139	      1.67084819	     11.50973431	     -6.64378188	     -4.18786259	    -18.33792677	     21.06894488	      1.42170975	      2.21240014	      1.91446968	     14.90305534
      1.36000000	    -10.69698480	      2.51609221	    -35.27092986	     -1.38854899	      0.87888217	     -0.51937206	     10.29485719	      0.72897091	      0.28550996	    -10.30728432	     15.59122196	      1.80076055	     11.43637937	     -6.62377832	     -4.23751658	    -18.33184783	     21.22638856	      1.24462502	      2.24969015	      1.93250396	     14.96740017
      1.37000000	    -10.77749139	      2.54850335	    -35.30972138	     -1.38675558	      0.87857206	     -0.51890915	     10.24458804	      0.70389212	      0.32538154	    -10.27226783	     15.67877054	      1.83287350	     11.37788957	     -6.58800015	     -4.21170338	    -18.31728198	     21.40308084	      1.19811224	      2.30006713	      1.94322109	     14.98689558
